<svg version="1.1" viewBox="0.0 0.0 600.0 600.0" fill="none" stroke="none" stroke-linecap="square" stroke-miterlimit="10" xmlns:xlink="http://www.w3.org/1999/xlink" xmlns="http://www.w3.org/2000/svg"><clipPath id="p.0"><path d="m0 0l600.0 0l0 600.0l-600.0 0l0 -600.0z" clip-rule="nonzero"/></clipPath><g clip-path="url(#p.0)"><path fill="#000000" fill-opacity="0.0" d="m0 0l600.0 0l0 600.0l-600.0 0z" fill-rule="evenodd"/><path fill="#d9d9d9" d="m87.00656 0l425.98422 0l0 402.4252l-425.98422 0z" fill-rule="evenodd"/><path stroke="#d9d9d9" stroke-width="1.0" stroke-linejoin="round" stroke-linecap="butt" d="m87.00656 0l425.98422 0l0 402.4252l-425.98422 0z" fill-rule="evenodd"/><path fill="#d9d9d9" d="m512.99243 402.4252l-212.99213 197.5748l-212.99214 -197.5748z" fill-rule="evenodd"/><path stroke="#d9d9d9" stroke-width="1.0" stroke-linejoin="round" stroke-linecap="butt" d="m512.99243 402.4252l-212.99213 197.5748l-212.99214 -197.5748z" fill-rule="evenodd"/><path fill="#000000" fill-opacity="0.0" d="m106.04724 37.85827l387.90552 0l0 364.56693l-387.90552 0z" fill-rule="evenodd"/><path fill="#000000" d="m147.31505 108.29827l-9.953125 0l0 -47.203125l16.15625 0q5.40625 0 9.265625 2.09375q3.859375 2.09375 5.890625 5.671875q2.03125 3.5625 2.03125 8.046875q0 4.453125 -2.0625 8.15625q-2.0625 3.6875 -5.90625 5.90625q-3.84375 2.21875 -9.21875 2.21875l-6.203125 0l0 15.109375zm0 -18.171875l-4.484375 -4.609375l9.640625 0q2.484375 0 4.34375 -1.0q1.859375 -1.015625 2.875 -2.953125q1.03125 -1.9375 1.03125 -4.65625q0 -2.75 -1.015625 -4.5625q-1.0 -1.8125 -2.84375 -2.6875q-1.84375 -0.875 -4.390625 -0.875l-9.640625 0l4.484375 -4.734375l0 26.078125zm29.5997 18.171875l0 -33.984375l9.953125 0l0 11.71875l-2.046875 -1.28125q0.34375 -2.40625 1.265625 -4.421875q0.9375 -2.015625 2.40625 -3.5q1.46875 -1.484375 3.5 -2.3125q2.03125 -0.84375 4.65625 -0.84375q2.046875 0 3.21875 0.3125q1.171875 0.296875 1.453125 0.453125l-1.625 8.90625q-0.28125 -0.171875 -1.28125 -0.515625q-0.984375 -0.359375 -2.5625 -0.359375q-2.5625 0 -4.296875 0.875q-1.71875 0.859375 -2.765625 2.28125q-1.03125 1.421875 -1.484375 3.15625q-0.4375 1.71875 -0.4375 3.484375l0 16.03125l-9.953125 0zm45.81569 0.734375q-5.5 0 -9.6875 -2.265625q-4.1875 -2.28125 -6.546875 -6.265625q-2.359375 -3.984375 -2.359375 -9.1875q0 -5.1875 2.359375 -9.171875q2.359375 -3.984375 6.546875 -6.203125q4.1875 -2.234375 9.6875 -2.234375q5.515625 0 9.703125 2.234375q4.1875 2.21875 6.53125 6.203125q2.359375 3.984375 2.359375 9.171875q0 5.203125 -2.359375 9.1875q-2.34375 3.984375 -6.53125 6.265625q-4.1875 2.265625 -9.703125 2.265625zm0 -7.875q2.59375 0 4.515625 -1.203125q1.921875 -1.21875 2.96875 -3.4375q1.0625 -2.234375 1.0625 -5.203125q0 -2.984375 -1.0625 -5.171875q-1.046875 -2.203125 -2.96875 -3.375q-1.921875 -1.1875 -4.515625 -1.1875q-2.546875 0 -4.484375 1.1875q-1.9375 1.171875 -3.0 3.375q-1.046875 2.1875 -1.046875 5.171875q0 2.96875 1.046875 5.203125q1.0625 2.21875 3.0 3.4375q1.9375 1.203125 4.484375 1.203125zm19.838959 21.765625q-0.921875 0 -1.796875 -0.0625q-0.890625 -0.0625 -1.453125 -0.09375l0 -7.328125q0.5625 0.09375 1.453125 0.171875q0.875 0.078125 1.796875 0.078125q1.578125 0 2.546875 -0.4375q0.984375 -0.421875 1.46875 -1.109375q0.5 -0.6875 0.671875 -1.53125q0.1875 -0.828125 0.1875 -1.59375l0 -36.703125l9.890625 0l0 36.921875q0 2.125 -0.515625 4.1875q-0.515625 2.0625 -2.046875 3.75q-1.515625 1.703125 -4.4375 2.71875q-2.921875 1.03125 -7.765625 1.03125zm9.921875 -54.140625q-2.296875 0 -4.015625 -1.21875q-1.703125 -1.21875 -1.703125 -3.421875q0 -2.25 1.703125 -3.453125q1.71875 -1.21875 4.015625 -1.21875q2.3125 0 4.015625 1.21875q1.71875 1.203125 1.71875 3.453125q0 2.203125 -1.71875 3.421875q-1.703125 1.21875 -4.015625 1.21875zm16.108154 25.5l0 -6.5625l22.515625 0l-0.953125 1.671875q0 -0.265625 0 -0.5q0 -0.234375 0 -0.46875q0 -1.828125 -0.875 -3.5q-0.859375 -1.6875 -2.671875 -2.75q-1.796875 -1.078125 -4.609375 -1.078125q-2.828125 0 -4.859375 1.203125q-2.03125 1.203125 -3.109375 3.453125q-1.0625 2.234375 -1.0625 5.390625q0 3.265625 1.03125 5.59375q1.046875 2.3125 3.109375 3.5625q2.0625 1.25 5.140625 1.25q1.984375 0 3.421875 -0.359375q1.4375 -0.375 2.34375 -0.953125q0.921875 -0.578125 1.390625 -1.28125q0.484375 -0.703125 0.59375 -1.375l9.78125 0q-0.1875 2.140625 -1.46875 4.203125q-1.28125 2.0625 -3.5625 3.71875q-2.265625 1.640625 -5.515625 2.609375q-3.234375 0.953125 -7.40625 0.953125q-5.625 0 -9.828125 -2.25q-4.1875 -2.265625 -6.5 -6.25q-2.296875 -3.984375 -2.296875 -9.1875q0 -5.28125 2.359375 -9.265625q2.359375 -3.984375 6.5625 -6.203125q4.203125 -2.234375 9.734375 -2.234375q5.671875 0 9.796875 2.265625q4.125 2.25 6.359375 6.296875q2.25 4.046875 2.25 9.421875q0 0.796875 -0.03125 1.53125q-0.03125 0.734375 -0.09375 1.09375l-31.546875 0zm54.960968 14.78125q-5.59375 0 -9.828125 -2.25q-4.21875 -2.265625 -6.546875 -6.296875q-2.3125 -4.03125 -2.3125 -9.3125q0 -5.34375 2.3125 -9.25q2.328125 -3.921875 6.546875 -6.09375q4.234375 -2.1875 9.828125 -2.1875q4.203125 0 7.421875 1.234375q3.234375 1.234375 5.40625 3.25q2.1875 2.015625 3.296875 4.421875q1.125 2.390625 1.125 4.765625q0 0.03125 0 0.109375q0 0.078125 0 0.140625l-9.8125 0q0 -0.1875 -0.015625 -0.359375q-0.015625 -0.1875 -0.09375 -0.375q-0.25 -1.34375 -1.109375 -2.53125q-0.859375 -1.1875 -2.421875 -1.9375q-1.546875 -0.75 -3.859375 -0.75q-2.453125 0 -4.390625 1.09375q-1.9375 1.078125 -3.0625 3.21875q-1.109375 2.125 -1.109375 5.25q0 3.078125 1.109375 5.3125q1.125 2.21875 3.0625 3.40625q1.9375 1.171875 4.390625 1.171875q2.53125 0 4.125 -0.78125q1.609375 -0.78125 2.40625 -2.109375q0.796875 -1.328125 0.96875 -2.9375l9.8125 0q0 2.375 -1.109375 4.828125q-1.09375 2.4375 -3.25 4.453125q-2.15625 2.015625 -5.390625 3.265625q-3.234375 1.25 -7.5 1.25zm39.849823 -0.0625q-1.953125 0 -4.015625 -0.34375q-2.0625 -0.328125 -3.84375 -1.328125q-1.78125 -1.015625 -2.875 -2.96875q-1.078125 -1.953125 -1.078125 -5.15625q0 -0.703125 0 -1.4375q0 -0.734375 0 -1.46875l0 -14.296875l-7.84375 0l0 -7.6875l2.21875 0q1.921875 0 3.046875 -0.15625q1.140625 -0.15625 1.703125 -0.8125q0.5625 -0.65625 0.71875 -2.0625q0.15625 -1.421875 0.15625 -3.875l0 -4.296875l9.953125 0l0 11.203125l9.890625 0l0 7.6875l-9.890625 0l0 12.21875q0 0.578125 0 1.125q0 0.53125 0 1.046875q0 2.203125 0.53125 3.59375q0.53125 1.375 2.640625 1.375q1.046875 0 1.984375 -0.1875q0.953125 -0.203125 1.4375 -0.390625l0 7.453125q-0.671875 0.28125 -1.890625 0.515625q-1.21875 0.25 -2.84375 0.25zm48.704468 -47.90625q4.953125 0 8.140625 1.375q3.1875 1.375 4.71875 3.953125q1.53125 2.578125 1.53125 6.0625q0 3.5 -1.375 5.953125q-1.375 2.4375 -3.484375 3.765625q-2.109375 1.328125 -4.28125 1.484375q2.265625 0.0625 4.65625 1.171875q2.40625 1.09375 4.03125 3.546875q1.640625 2.453125 1.640625 6.515625q0 3.84375 -1.546875 6.875q-1.546875 3.015625 -4.984375 4.765625q-3.421875 1.734375 -9.140625 1.734375l-18.5625 0l0 -47.203125l18.65625 0zm-9.15625 21.859375l-3.296875 -2.78125l9.40625 0q3.78125 0 5.671875 -1.609375q1.890625 -1.625 1.890625 -4.375q0 -1.859375 -0.8125 -3.0625q-0.796875 -1.203125 -2.359375 -1.765625q-1.5625 -0.578125 -3.875 -0.578125l-11.109375 0l4.484375 -4.734375l0 18.90625zm7.140625 17.625q3.640625 0 5.546875 -1.671875q1.90625 -1.6875 1.90625 -4.5625q0 -1.625 -0.5625 -2.84375q-0.5625 -1.21875 -1.59375 -2.03125q-1.015625 -0.8125 -2.46875 -1.25q-1.453125 -0.4375 -3.21875 -0.4375l-10.046875 0l3.296875 -2.75l0 20.296875l-4.484375 -4.75l11.625 0zm27.164673 22.40625q-1.59375 0 -2.859375 -0.109375q-1.265625 -0.109375 -1.59375 -0.234375l0 -7.53125q0.421875 0.203125 1.453125 0.3125q1.046875 0.109375 2.234375 0.109375q1.5625 0 2.828125 -0.625q1.265625 -0.625 2.171875 -1.765625q0.921875 -1.125 1.4375 -2.671875l0.5625 -1.71875l-11.703125 -34.4375l10.328125 0l7.390625 27.875l-1.140625 0l7.09375 -27.875l10.21875 0l-11.6875 35.6875q-1.3125 4.03125 -3.234375 6.9375q-1.921875 2.90625 -5.125 4.46875q-3.1875 1.578125 -8.375 1.578125z" fill-rule="nonzero"/><path fill="#000000" d="m240.42642 149.41513l0 47.203125l-9.953125 0l0 -22.65625l4.484375 3.015625l-26.046875 0l4.484375 -2.890625l0 22.53125l-9.953125 0l0 -47.203125l9.953125 0l0 22.8125l-4.484375 -2.96875l26.046875 0l-4.484375 2.96875l0 -22.8125l9.953125 0zm19.332092 47.90625q-3.703125 0 -6.609375 -1.171875q-2.890625 -1.1875 -4.53125 -3.421875q-1.625 -2.25 -1.625 -5.453125q0 -3.609375 1.984375 -5.875q1.984375 -2.28125 5.265625 -3.484375q3.28125 -1.203125 7.109375 -1.578125q5.609375 -0.546875 7.734375 -1.0q2.125 -0.453125 2.125 -1.5625q0 0 0 -0.015625q0 -0.015625 0 -0.046875q0 -1.890625 -1.8125 -2.96875q-1.796875 -1.09375 -5.03125 -1.09375q-3.421875 0 -5.234375 1.234375q-1.8125 1.21875 -1.8125 3.75l-9.75 0q0 -4.09375 2.21875 -6.90625q2.21875 -2.828125 6.03125 -4.28125q3.8125 -1.453125 8.609375 -1.453125q4.484375 0 8.28125 1.359375q3.8125 1.359375 6.125 4.078125q2.328125 2.71875 2.328125 6.921875q0 0.671875 0 1.328125q0 0.65625 0 1.328125l0 12.03125q0 1.3125 0.078125 2.515625q0.078125 1.1875 0.375 2.1875q0.3125 1.109375 0.796875 1.859375q0.484375 0.734375 0.796875 1.015625l-9.75 0q-0.234375 -0.21875 -0.703125 -0.921875q-0.453125 -0.703125 -0.78125 -1.640625q-0.375 -1.125 -0.5625 -2.25q-0.171875 -1.140625 -0.171875 -2.671875l2.046875 1.40625q-0.890625 2.109375 -2.890625 3.640625q-2.0 1.515625 -4.734375 2.328125q-2.734375 0.8125 -5.90625 0.8125zm2.65625 -7.421875q2.34375 0 4.375 -0.84375q2.03125 -0.859375 3.3125 -2.671875q1.28125 -1.828125 1.28125 -4.78125l0 -3.421875l2.453125 2.40625q-2.109375 0.765625 -4.875 1.265625q-2.765625 0.5 -5.515625 0.78125q-3.265625 0.328125 -4.890625 1.109375q-1.609375 0.78125 -1.609375 2.640625q0 1.75 1.375 2.640625q1.375 0.875 4.09375 0.875zm43.129578 7.484375q-5.59375 0 -9.828125 -2.25q-4.21875 -2.265625 -6.546875 -6.296875q-2.3125 -4.03125 -2.3125 -9.3125q0 -5.34375 2.3125 -9.25q2.328125 -3.921875 6.546875 -6.09375q4.234375 -2.1875 9.828125 -2.1875q4.203125 0 7.421875 1.234375q3.234375 1.234375 5.40625 3.25q2.1875 2.015625 3.296875 4.421875q1.125 2.390625 1.125 4.765625q0 0.03125 0 0.109375q0 0.078125 0 0.140625l-9.8125 0q0 -0.1875 -0.015625 -0.359375q-0.015625 -0.1875 -0.09375 -0.375q-0.25 -1.34375 -1.109375 -2.53125q-0.859375 -1.1875 -2.421875 -1.9375q-1.546875 -0.75 -3.859375 -0.75q-2.453125 0 -4.390625 1.09375q-1.9375 1.078125 -3.0625 3.21875q-1.109375 2.125 -1.109375 5.25q0 3.078125 1.109375 5.3125q1.125 2.21875 3.0625 3.40625q1.9375 1.171875 4.390625 1.171875q2.53125 0 4.125 -0.78125q1.609375 -0.78125 2.40625 -2.109375q0.796875 -1.328125 0.96875 -2.9375l9.8125 0q0 2.375 -1.109375 4.828125q-1.09375 2.4375 -3.25 4.453125q-2.15625 2.015625 -5.390625 3.265625q-3.234375 1.25 -7.5 1.25zm23.434723 -0.765625l0 -50.015625l9.40625 0l0 28.640625l-1.953125 -1.03125l12.953125 -11.578125l12.171875 0l-16.84375 15.046875l2.125 -3.78125l14.421875 22.71875l-10.421875 0l-10.5 -17.5l2.53125 0.1875l-5.515625 5.0l1.03125 -4.265625l0 16.578125l-9.40625 0zm53.889313 0l0 -9.0625l-19.96875 0l0 -6.875l16.828125 -31.328125l12.828125 0l0 30.71875l5.640625 0l0 7.484375l-5.640625 0l0 9.0625l-9.6875 0zm-12.515625 -12.28125l-2.65625 -4.265625l15.171875 0l0 -24.375l2.015625 0.53125l-14.53125 28.109375z" fill-rule="nonzero"/><path fill="#000000" d="m188.49802 284.93826l0 -47.20314l9.796875 0l0 47.20314l-9.796875 0zm38.787537 0l0 -13.15625q0 -1.890625 0 -3.28125q0 -1.390625 0 -2.3125q0 -1.3125 -0.15625 -2.59375q-0.140625 -1.28125 -0.640625 -2.375q-0.484375 -1.109375 -1.515625 -1.765625q-1.015625 -0.65625 -2.78125 -0.65625q-1.625 0 -2.8125 0.6875q-1.1875 0.6875 -1.9375 1.890625q-0.75 1.1875 -1.109375 2.75q-0.34375 1.546875 -0.34375 3.25l-2.71875 -2.25q0 -4.3125 1.5625 -7.65625q1.5625 -3.3437653 4.453125 -5.2500153q2.90625 -1.90625 6.875 -1.90625q4.25 0 6.625 1.8125q2.390625 1.796875 3.359375 4.7968903q0.984375 2.984375 0.984375 6.609375q0 1.375 0 3.71875q0 2.328125 0 5.59375l0 12.09375l-9.84375 0zm-21.21875 0l0 -33.98439l9.921875 0l0 33.98439l-9.921875 0zm42.328125 0l0 -13.125q0 -1.953125 0 -3.359375q0 -1.40625 0 -2.328125q0 -1.40625 -0.15625 -2.703125q-0.15625 -1.296875 -0.671875 -2.34375q-0.515625 -1.0625 -1.546875 -1.671875q-1.015625 -0.609375 -2.765625 -0.609375q-1.640625 0 -2.8125 0.6875q-1.15625 0.6875 -1.90625 1.875q-0.734375 1.171875 -1.078125 2.6875q-0.328125 1.5 -0.328125 3.125l-2.71875 -2.203125q0 -4.25 1.546875 -7.546875q1.5625 -3.2968903 4.421875 -5.2031403q2.875 -1.90625 6.875 -1.90625q4.15625 0 6.5625 1.765625q2.421875 1.75 3.453125 4.6875153q1.046875 2.921875 1.046875 6.546875q0 1.4375 0 3.71875q0 2.265625 0 5.515625l0 12.390625l-9.921875 0zm17.35199 13.984375l0 -47.968765l9.953125 0l0 47.968765l-9.953125 0zm20.4375 -13.21875q-4.03125 0 -7.390625 -2.15625q-3.359375 -2.15625 -5.375 -5.8125q-2.015625 -3.671875 -2.015625 -8.25q0 -0.125 0 -0.234375q0 -0.125 0 -0.28125l4.296875 -0.09375q0 0.09375 0 0.1875q0 0.09375 0 0.1875q0 2.375 1.140625 4.15625q1.15625 1.765625 2.984375 2.734375q1.828125 0.953125 3.8125 0.953125q3.265625 0 5.671875 -2.25q2.421875 -2.265625 2.421875 -7.0625q0 -4.796875 -2.40625 -6.984375q-2.390625 -2.203125 -5.6875 -2.203125q-1.984375 0 -3.8125 0.953125q-1.828125 0.9375 -2.984375 2.671875q-1.140625 1.734375 -1.140625 4.125l-4.296875 -0.25q0 -4.609375 2.015625 -8.140625q2.015625 -3.5468903 5.375 -5.5937653q3.359375 -2.046875 7.390625 -2.046875q4.140625 0 7.71875 2.03125q3.578125 2.03125 5.796875 5.9375153q2.234375 3.90625 2.234375 9.5q0 5.859375 -2.171875 9.859375q-2.171875 4.0 -5.765625 6.03125q-3.578125 2.03125 -7.8125 2.03125zm33.446228 -0.0625q-3.703125 0 -6.609375 -1.171875q-2.890625 -1.1875 -4.53125 -3.421875q-1.625 -2.25 -1.625 -5.453125q0 -3.609375 1.984375 -5.875q1.984375 -2.28125 5.265625 -3.484375q3.28125 -1.203125 7.109375 -1.578125q5.609375 -0.546875 7.734375 -1.0q2.125 -0.453125 2.125 -1.5625q0 0 0 -0.015625q0 -0.015625 0 -0.046875q0 -1.890625 -1.8125 -2.96875q-1.796875 -1.09375 -5.03125 -1.09375q-3.421875 0 -5.234375 1.234375q-1.8125 1.21875 -1.8125 3.75l-9.75 0q0 -4.09375 2.21875 -6.90625q2.21875 -2.8281403 6.03125 -4.2812653q3.8125 -1.453125 8.609375 -1.453125q4.484375 0 8.28125 1.359375q3.8125 1.359375 6.125 4.078125q2.328125 2.7187653 2.328125 6.9218903q0 0.671875 0 1.328125q0 0.65625 0 1.328125l0 12.03125q0 1.3125 0.078125 2.515625q0.078125 1.1875 0.375 2.1875q0.3125 1.109375 0.796875 1.859375q0.484375 0.734375 0.796875 1.015625l-9.75 0q-0.234375 -0.21875 -0.703125 -0.921875q-0.453125 -0.703125 -0.78125 -1.640625q-0.375 -1.125 -0.5625 -2.25q-0.171875 -1.140625 -0.171875 -2.671875l2.046875 1.40625q-0.890625 2.109375 -2.890625 3.640625q-2.0 1.515625 -4.734375 2.328125q-2.734375 0.8125 -5.90625 0.8125zm2.65625 -7.421875q2.34375 0 4.375 -0.84375q2.03125 -0.859375 3.3125 -2.671875q1.28125 -1.828125 1.28125 -4.78125l0 -3.421875l2.453125 2.40625q-2.109375 0.765625 -4.875 1.265625q-2.765625 0.5 -5.515625 0.78125q-3.265625 0.328125 -4.890625 1.109375q-1.609375 0.78125 -1.609375 2.640625q0 1.75 1.375 2.640625q1.375 0.875 4.09375 0.875zm43.129547 7.484375q-5.5937195 0 -9.8280945 -2.25q-4.21875 -2.265625 -6.546875 -6.296875q-2.3125 -4.03125 -2.3125 -9.3125q0 -5.34375 2.3125 -9.25q2.328125 -3.9218903 6.546875 -6.0937653q4.234375 -2.1875 9.8280945 -2.1875q4.203125 0 7.421875 1.234375q3.234375 1.234375 5.40625 3.25q2.1875 2.0156403 3.296875 4.4218903q1.125 2.390625 1.125 4.765625q0 0.03125 0 0.109375q0 0.078125 0 0.140625l-9.8125 0q0 -0.1875 -0.015625 -0.359375q-0.015625 -0.1875 -0.09375 -0.375q-0.25 -1.34375 -1.109375 -2.53125q-0.859375 -1.1875 -2.421875 -1.9375q-1.546875 -0.75 -3.859375 -0.75q-2.453125 0 -4.3905945 1.09375q-1.9375 1.078125 -3.0625 3.21875q-1.109375 2.125 -1.109375 5.25q0 3.078125 1.109375 5.3125q1.125 2.21875 3.0625 3.40625q1.9374695 1.171875 4.3905945 1.171875q2.53125 0 4.125 -0.78125q1.609375 -0.78125 2.40625 -2.109375q0.796875 -1.328125 0.96875 -2.9375l9.8125 0q0 2.375 -1.109375 4.828125q-1.09375 2.4375 -3.25 4.453125q-2.15625 2.015625 -5.390625 3.265625q-3.234375 1.25 -7.5 1.25zm39.849854 -0.0625q-1.953125 0 -4.015625 -0.34375q-2.0625 -0.328125 -3.84375 -1.328125q-1.78125 -1.015625 -2.875 -2.96875q-1.078125 -1.953125 -1.078125 -5.15625q0 -0.703125 0 -1.4375q0 -0.734375 0 -1.46875l0 -14.296875l-7.84375 0l0 -7.6875153l2.21875 0q1.921875 0 3.046875 -0.15625q1.140625 -0.15625 1.703125 -0.8125q0.5625 -0.65625 0.71875 -2.0625q0.15625 -1.421875 0.15625 -3.875l0 -4.296875l9.953125 0l0 11.203125l9.890625 0l0 7.6875153l-9.890625 0l0 12.21875q0 0.578125 0 1.125q0 0.53125 0 1.046875q0 2.203125 0.53125 3.59375q0.53125 1.375 2.640625 1.375q1.046875 0 1.984375 -0.1875q0.953125 -0.203125 1.4375 -0.390625l0 7.453125q-0.671875 0.28125 -1.890625 0.515625q-1.21875 0.25 -2.84375 0.25z" fill-rule="nonzero"/><path fill="#000000" d="m152.88304 373.25827l-9.953125 0l0 -47.203125l16.15625 0q5.40625 0 9.265625 2.09375q3.859375 2.09375 5.890625 5.671875q2.03125 3.5625 2.03125 8.046875q0 4.453125 -2.0625 8.15625q-2.0625 3.6875 -5.90625 5.90625q-3.84375 2.21875 -9.21875 2.21875l-6.203125 0l0 15.109375zm0 -18.171875l-4.484375 -4.609375l9.640625 0q2.484375 0 4.34375 -1.0q1.859375 -1.015625 2.875 -2.953125q1.03125 -1.9375 1.03125 -4.65625q0 -2.75 -1.015625 -4.5625q-1.0 -1.8125 -2.84375 -2.6875q-1.84375 -0.875 -4.390625 -0.875l-9.640625 0l4.484375 -4.734375l0 26.078125zm29.5997 18.171875l0 -33.984375l9.953125 0l0 11.71875l-2.046875 -1.28125q0.34375 -2.40625 1.265625 -4.421875q0.9375 -2.015625 2.40625 -3.5q1.46875 -1.484375 3.5 -2.3125q2.03125 -0.84375 4.65625 -0.84375q2.046875 0 3.21875 0.3125q1.171875 0.296875 1.453125 0.453125l-1.625 8.90625q-0.28125 -0.171875 -1.28125 -0.515625q-0.984375 -0.359375 -2.5625 -0.359375q-2.5625 0 -4.296875 0.875q-1.71875 0.859375 -2.765625 2.28125q-1.03125 1.421875 -1.484375 3.15625q-0.4375 1.71875 -0.4375 3.484375l0 16.03125l-9.953125 0zm29.049438 0l0 -33.984375l9.828125 0l0 33.984375l-9.828125 0zm4.90625 -39.515625q-2.3125 0 -4.03125 -1.21875q-1.703125 -1.21875 -1.703125 -3.421875q0 -2.25 1.703125 -3.453125q1.71875 -1.21875 4.03125 -1.21875q2.328125 0 4.03125 1.21875q1.71875 1.203125 1.71875 3.453125q0 2.234375 -1.71875 3.4375q-1.703125 1.203125 -4.03125 1.203125zm36.18991 39.515625l0 -14.4375q0 -1.203125 0 -2.1875q0 -1.0 0 -1.8125q0 -2.109375 -0.546875 -3.84375q-0.546875 -1.75 -1.953125 -2.796875q-1.40625 -1.0625 -4.0625 -1.0625q-2.3125 0 -4.0 1.0625q-1.671875 1.046875 -2.5625 2.9375q-0.890625 1.890625 -0.890625 4.34375l-2.75 -1.984375q0 -4.40625 1.90625 -7.734375q1.921875 -3.328125 5.203125 -5.21875q3.28125 -1.890625 7.28125 -1.890625q4.1875 0 6.8906403 1.6875q2.71875 1.671875 4.046875 4.671875q1.328125 2.984375 1.328125 6.984375q0 1.640625 0 3.65625q0 2.015625 0 4.125l0 13.5l-9.89064 0zm-23.9375 0l0 -33.984375l9.921875 0l0 33.984375l-9.921875 0zm58.38948 0.765625q-5.59375 0 -9.828125 -2.25q-4.21875 -2.265625 -6.546875 -6.296875q-2.3125 -4.03125 -2.3125 -9.3125q0 -5.34375 2.3125 -9.25q2.328125 -3.921875 6.546875 -6.09375q4.234375 -2.1875 9.828125 -2.1875q4.203125 0 7.421875 1.234375q3.234375 1.234375 5.40625 3.25q2.1875 2.015625 3.296875 4.421875q1.125 2.390625 1.125 4.765625q0 0.03125 0 0.109375q0 0.078125 0 0.140625l-9.8125 0q0 -0.1875 -0.015625 -0.359375q-0.015625 -0.1875 -0.09375 -0.375q-0.25 -1.34375 -1.109375 -2.53125q-0.859375 -1.1875 -2.421875 -1.9375q-1.546875 -0.75 -3.859375 -0.75q-2.453125 0 -4.390625 1.09375q-1.9375 1.078125 -3.0625 3.21875q-1.109375 2.125 -1.109375 5.25q0 3.078125 1.109375 5.3125q1.125 2.21875 3.0625 3.40625q1.9375 1.171875 4.390625 1.171875q2.53125 0 4.125 -0.78125q1.609375 -0.78125 2.40625 -2.109375q0.796875 -1.328125 0.96875 -2.9375l9.8125 0q0 2.375 -1.109375 4.828125q-1.09375 2.4375 -3.25 4.453125q-2.15625 2.015625 -5.390625 3.265625q-3.234375 1.25 -7.5 1.25zm27.247192 -14.78125l0 -6.5625l22.515625 0l-0.953125 1.671875q0 -0.265625 0 -0.5q0 -0.234375 0 -0.46875q0 -1.828125 -0.875 -3.5q-0.859375 -1.6875 -2.671875 -2.75q-1.796875 -1.078125 -4.609375 -1.078125q-2.828125 0 -4.859375 1.203125q-2.03125 1.203125 -3.109375 3.453125q-1.0625 2.234375 -1.0625 5.390625q0 3.265625 1.03125 5.59375q1.046875 2.3125 3.109375 3.5625q2.0625 1.25 5.140625 1.25q1.984375 0 3.421875 -0.359375q1.4375 -0.375 2.34375 -0.953125q0.921875 -0.578125 1.390625 -1.28125q0.484375 -0.703125 0.59375 -1.375l9.78125 0q-0.1875 2.140625 -1.46875 4.203125q-1.28125 2.0625 -3.5625 3.71875q-2.265625 1.640625 -5.515625 2.609375q-3.234375 0.953125 -7.40625 0.953125q-5.625 0 -9.828125 -2.25q-4.1875 -2.265625 -6.5 -6.25q-2.296875 -3.984375 -2.296875 -9.1875q0 -5.28125 2.359375 -9.265625q2.359375 -3.984375 6.5625 -6.203125q4.203125 -2.234375 9.734375 -2.234375q5.671875 0 9.796875 2.265625q4.125 2.25 6.359375 6.296875q2.25 4.046875 2.25 9.421875q0 0.796875 -0.03125 1.53125q-0.03125 0.734375 -0.09375 1.09375l-31.546875 0zm54.266724 14.71875q-1.953125 0 -4.015625 -0.34375q-2.0625 -0.328125 -3.84375 -1.328125q-1.78125 -1.015625 -2.875 -2.96875q-1.078125 -1.953125 -1.078125 -5.15625q0 -0.703125 0 -1.4375q0 -0.734375 0 -1.46875l0 -14.296875l-7.84375 0l0 -7.6875l2.21875 0q1.921875 0 3.046875 -0.15625q1.140625 -0.15625 1.703125 -0.8125q0.5625 -0.65625 0.71875 -2.0625q0.15625 -1.421875 0.15625 -3.875l0 -4.296875l9.953125 0l0 11.203125l9.890625 0l0 7.6875l-9.890625 0l0 12.21875q0 0.578125 0 1.125q0 0.53125 0 1.046875q0 2.203125 0.53125 3.59375q0.53125 1.375 2.640625 1.375q1.046875 0 1.984375 -0.1875q0.953125 -0.203125 1.4375 -0.390625l0 7.453125q-0.671875 0.28125 -1.890625 0.515625q-1.21875 0.25 -2.84375 0.25zm30.200562 0.03125q-5.5 0 -9.6875 -2.265625q-4.1875 -2.28125 -6.546875 -6.265625q-2.359375 -3.984375 -2.359375 -9.1875q0 -5.1875 2.359375 -9.171875q2.359375 -3.984375 6.546875 -6.203125q4.1875 -2.234375 9.6875 -2.234375q5.515625 0 9.703125 2.234375q4.1875 2.21875 6.53125 6.203125q2.359375 3.984375 2.359375 9.171875q0 5.203125 -2.359375 9.1875q-2.34375 3.984375 -6.53125 6.265625q-4.1875 2.265625 -9.703125 2.265625zm0 -7.875q2.59375 0 4.515625 -1.203125q1.921875 -1.21875 2.96875 -3.4375q1.0625 -2.234375 1.0625 -5.203125q0 -2.984375 -1.0625 -5.171875q-1.046875 -2.203125 -2.96875 -3.375q-1.921875 -1.1875 -4.515625 -1.1875q-2.546875 0 -4.484375 1.1875q-1.9375 1.171875 -3.0 3.375q-1.046875 2.1875 -1.046875 5.171875q0 2.96875 1.046875 5.203125q1.0625 2.21875 3.0 3.4375q1.9375 1.203125 4.484375 1.203125zm48.71393 7.140625l0 -14.4375q0 -1.203125 0 -2.1875q0 -1.0 0 -1.8125q0 -2.109375 -0.546875 -3.84375q-0.546875 -1.75 -1.953125 -2.796875q-1.40625 -1.0625 -4.0625 -1.0625q-2.3125 0 -4.0 1.0625q-1.671875 1.046875 -2.5625 2.9375q-0.890625 1.890625 -0.890625 4.34375l-2.75 -1.984375q0 -4.40625 1.90625 -7.734375q1.921875 -3.328125 5.203125 -5.21875q3.28125 -1.890625 7.28125 -1.890625q4.1875 0 6.890625 1.6875q2.71875 1.671875 4.046875 4.671875q1.328125 2.984375 1.328125 6.984375q0 1.640625 0 3.65625q0 2.015625 0 4.125l0 13.5l-9.890625 0zm-23.9375 0l0 -33.984375l9.921875 0l0 33.984375l-9.921875 0z" fill-rule="nonzero"/></g></svg>